<svg width="118" height="111" viewBox="0 0 118 111" fill="none" xmlns="http://www.w3.org/2000/svg">
<path d="M79.4562 42.1947C71.0762 42.1947 62.5662 41.8547 54.5962 39.6347C46.7762 37.4647 39.5962 33.2547 33.1962 28.3847C28.9962 25.2147 25.1962 22.6847 19.7462 23.0647C14.4235 23.3599 9.33664 25.3581 5.23621 28.7647C-1.69379 34.8247 -0.643785 46.0347 2.11621 53.9147C6.28621 65.7847 18.9362 74.0347 29.7062 79.4047C42.1362 85.6147 55.7862 89.1947 69.4862 91.2947C81.4862 93.1247 96.8962 94.4447 107.296 86.6147C116.856 79.4147 119.476 62.9647 117.136 51.8647C116.565 48.5845 114.815 45.6257 112.216 43.5447C105.506 38.6347 95.4962 41.9147 87.9562 42.0747C85.1562 42.1947 82.3162 42.1947 79.4562 42.1947Z" fill="#F2F2F2"/>
<path d="M58.9663 110.755C79.2407 110.755 95.6763 109.729 95.6763 108.465C95.6763 107.2 79.2407 106.175 58.9663 106.175C38.692 106.175 22.2563 107.2 22.2563 108.465C22.2563 109.729 38.692 110.755 58.9663 110.755Z" fill="#F2F2F2"/>
<path d="M36.4762 8.44466C36.1247 6.59094 36.5234 4.6735 37.5847 3.11351C38.6459 1.55351 40.2829 0.478523 42.1362 0.124659H42.3062C44.1599 -0.226813 46.0774 0.171855 47.6374 1.2331C49.1974 2.29435 50.2724 3.93139 50.6262 5.78466L36.4762 8.44466Z" fill="#D2D2D2"/>
<path d="M20.2313 11.5303L66.8667 2.66789C69.1335 2.23711 71.4786 2.72446 73.3861 4.02274C75.2936 5.32101 76.6072 7.32386 77.038 9.59067L13.3183 21.6997C12.8879 19.4346 13.3742 17.0913 14.6704 15.1845C15.9666 13.2777 17.9667 11.9634 20.2313 11.5303Z" fill="white" stroke="#BABABA" stroke-linecap="round" stroke-linejoin="round"/>
<path d="M9.81616 22.3547L80.5262 8.92468" stroke="#BABABA" stroke-linecap="round" stroke-linejoin="round"/>
<path d="M106.196 77.9547L71.5964 101.895C70.6672 102.529 69.5325 102.789 68.4198 102.622C67.3071 102.455 66.2985 101.874 65.5964 100.995L27.0464 52.4247L75.5964 18.8347L107.486 71.9747C108.069 72.9493 108.26 74.109 108.021 75.2192C107.782 76.3293 107.129 77.3071 106.196 77.9547Z" fill="white" stroke="#BABABA" stroke-linecap="round" stroke-linejoin="round"/>
<path d="M21.4463 56.3047L81.1963 14.9547" stroke="#BABABA" stroke-linecap="round" stroke-linejoin="round"/>
<path d="M48.9499 43.0013L48.9418 43.0072C48.1583 43.5731 47.982 44.667 48.5479 45.4505L79.6743 88.5449C80.2402 89.3284 81.3341 89.5048 82.1176 88.9389L82.1257 88.9331C82.9092 88.3672 83.0856 87.2732 82.5197 86.4897L51.3933 43.3953C50.8274 42.6118 49.7334 42.4354 48.9499 43.0013Z" fill="#D2D2D2"/>
<path d="M90.6405 83.1561L90.6488 83.1506C91.451 82.619 91.6704 81.5378 91.1388 80.7356L61.9008 36.6128C61.3692 35.8106 60.288 35.5912 59.4858 36.1228L59.4775 36.1283C58.6753 36.6599 58.4559 37.7411 58.9875 38.5433L88.2255 82.6661C88.7571 83.4683 89.8383 83.6877 90.6405 83.1561Z" fill="#D2D2D2"/>
<path d="M68.6901 29.3841L68.6816 29.3894C67.8601 29.8985 67.6068 30.9772 68.116 31.7988L96.1211 76.9839C96.6302 77.8054 97.709 78.0587 98.5305 77.5495L98.539 77.5442C99.3605 77.0351 99.6137 75.9563 99.1045 75.1348L71.0995 29.9497C70.5903 29.1281 69.5116 28.8749 68.6901 29.3841Z" fill="#D2D2D2"/>
<path d="M73.8101 94.6331L73.818 94.627C74.5841 94.0377 74.7274 92.9389 74.1381 92.1729L41.7248 50.0378C41.1355 49.2717 40.0367 49.1284 39.2707 49.7177L39.2628 49.7238C38.4967 50.3131 38.3534 51.4119 38.9427 52.1779L71.356 94.313C71.9453 95.0791 73.044 95.2224 73.8101 94.6331Z" fill="#D2D2D2"/>
<path d="M87.1663 20.0946C87.7075 20.0946 88.1463 19.6559 88.1463 19.1146C88.1463 18.5734 87.7075 18.1346 87.1663 18.1346C86.625 18.1346 86.1863 18.5734 86.1863 19.1146C86.1863 19.6559 86.625 20.0946 87.1663 20.0946Z" fill="#CFCFCF"/>
<path d="M10.5064 14.6047C11.0476 14.6047 11.4864 14.1659 11.4864 13.6247C11.4864 13.0834 11.0476 12.6447 10.5064 12.6447C9.96513 12.6447 9.52637 13.0834 9.52637 13.6247C9.52637 14.1659 9.96513 14.6047 10.5064 14.6047Z" fill="#CFCFCF"/>
<path d="M88.9663 97.8047C89.5076 97.8047 89.9463 97.366 89.9463 96.8247C89.9463 96.2835 89.5076 95.8447 88.9663 95.8447C88.4251 95.8447 87.9863 96.2835 87.9863 96.8247C87.9863 97.366 88.4251 97.8047 88.9663 97.8047Z" fill="#CFCFCF"/>
<path d="M47.4763 23.1647V27.4647" stroke="#BABABA" stroke-linecap="round" stroke-linejoin="round"/>
<path d="M45.3262 25.3147H49.6362" stroke="#BABABA" stroke-linecap="round" stroke-linejoin="round"/>
<path d="M33.0264 82.6047V86.9047" stroke="#BABABA" stroke-linecap="round" stroke-linejoin="round"/>
<path d="M30.8662 84.7548H35.1762" stroke="#BABABA" stroke-linecap="round" stroke-linejoin="round"/>
<path d="M93.5164 31.8247V36.1347" stroke="#BABABA" stroke-linecap="round" stroke-linejoin="round"/>
<path d="M91.3662 33.9847H95.6662" stroke="#BABABA" stroke-linecap="round" stroke-linejoin="round"/>
</svg>
