<svg width="151" height="126" viewBox="0 0 151 126" fill="none" xmlns="http://www.w3.org/2000/svg">
<path d="M71.0359 106.216C96.7643 106.216 117.675 85.3982 117.675 59.7832C117.675 34.1683 96.7643 13.3501 71.0359 13.3501C45.2111 13.3501 24.3971 34.0723 24.3971 59.7832C24.3971 85.3982 45.2111 106.216 71.0359 106.216Z" fill="#F5F6FA"/>
<path d="M41.6896 47.0903H98.0666C100.178 47.0903 102.078 48.8772 102.078 51.0845V86.5064C102.078 88.6085 100.284 90.5005 98.0666 90.5005H41.6896C39.5781 90.5005 37.6777 88.7137 37.6777 86.5064V51.0845C37.6777 48.8772 39.5781 47.0903 41.6896 47.0903Z" fill="url(#paint0_linear_4005_1686)"/>
<g filter="url(#filter0_dd_4005_1686)">
<path d="M122.56 28.381L108.519 53.2919C107.991 54.1328 106.935 54.4481 106.196 53.9226L82.1248 39.943C81.2802 39.4175 80.9635 38.3664 81.4913 37.6306L99.967 5.88759C100.495 5.04672 101.551 4.73139 102.29 5.25693L119.709 15.3474L122.56 28.381Z" fill="white"/>
</g>
<path d="M119.709 15.3472L115.698 22.0742C115.17 23.1253 115.486 24.1764 116.437 24.807L122.454 28.2756" fill="#D5DAE5"/>
<path d="M103.134 21.8644C103.556 21.7593 103.979 21.7593 104.295 21.7593C104.718 21.7593 105.14 21.7593 105.562 21.7593C105.985 21.8644 106.513 21.9695 106.935 22.0746C107.463 22.2848 107.885 22.495 108.307 22.7053C108.941 23.0206 109.469 23.441 109.891 23.9666C110.313 24.387 110.63 24.9126 110.841 25.5432C111.052 26.0688 111.052 26.6994 111.052 27.225C110.947 27.8556 110.736 28.4863 110.419 29.0118C110.102 29.5374 109.785 29.9578 109.363 30.3782C108.941 30.6936 108.624 30.9038 108.096 31.114C107.674 31.3242 107.252 31.4293 106.829 31.4293L105.668 31.5345C105.351 31.5345 105.034 31.6396 104.612 31.7447C104.295 31.8498 104.084 31.9549 103.873 32.1651L102.712 33.6366L100.811 32.5855L101.656 30.6936C101.762 30.3782 102.078 30.0629 102.29 29.8527C102.606 29.6425 102.923 29.5374 103.24 29.4323C103.662 29.3272 103.979 29.3272 104.401 29.222C104.823 29.222 105.246 29.1169 105.668 29.0118C106.09 28.9067 106.407 28.8016 106.829 28.5914C107.252 28.3812 107.463 28.0658 107.674 27.6454C107.779 27.4352 107.885 27.1199 107.991 26.8045C107.991 26.4892 107.991 26.279 107.885 26.0688C107.779 25.7534 107.674 25.5432 107.463 25.333C107.252 25.1228 107.04 24.9126 106.724 24.7023C106.407 24.4921 105.985 24.2819 105.562 24.1768C105.246 24.0717 104.929 24.0717 104.612 24.0717C104.295 24.0717 104.084 24.0717 103.873 24.0717C103.768 24.0717 103.556 24.0717 103.451 23.9666C103.24 23.8615 103.029 23.5461 103.029 23.3359L103.134 21.8644ZM97.7498 35.7388C97.8554 35.5286 98.0665 35.3184 98.2777 35.1082C98.4888 35.0031 98.7 34.7928 98.9111 34.7928C99.439 34.6877 99.9669 34.6877 100.389 35.0031C100.6 35.1082 100.811 35.3184 101.023 35.5286C101.128 35.7388 101.234 35.949 101.339 36.1593C101.656 37.2104 101.023 38.1563 99.9669 38.4717C99.439 38.5768 98.9111 38.4717 98.4888 38.2615C98.2777 38.1563 98.0665 37.9461 97.8554 37.7359C97.7498 37.5257 97.5387 37.3155 97.5387 37.1053C97.4331 36.895 97.4331 36.5797 97.5387 36.3695C97.5387 36.1593 97.6442 35.949 97.7498 35.7388Z" fill="#D5DAE5"/>
<g filter="url(#filter1_dd_4005_1686)">
<path d="M32.2934 17.555L48.3408 34.2674C48.8686 34.898 48.8686 35.7389 48.2352 36.2644L31.8711 51.7155C31.2376 52.2411 30.393 52.2411 29.8651 51.6104L9.38361 30.063C8.85574 29.4323 8.85574 28.5915 9.48919 28.0659L21.4192 16.9243L32.2934 17.555Z" fill="white"/>
</g>
<path d="M21.3135 16.7139L25.7476 21.3387C26.3811 21.9693 27.4368 21.9693 28.0703 21.3387L32.1877 17.4496" fill="#D5DAE5"/>
<path d="M22.5804 31.1136C22.5804 30.7983 22.686 30.483 22.7916 30.1676C22.8972 29.8523 23.0027 29.537 23.1083 29.2216C23.2139 28.9063 23.425 28.591 23.6362 28.2757C23.8473 27.9603 24.1641 27.645 24.4808 27.3297C24.9031 26.9092 25.3254 26.5939 25.8533 26.3837C26.2756 26.1735 26.8034 26.0684 27.2257 26.0684C27.648 26.0684 28.1759 26.1735 28.5982 26.2786C29.0205 26.4888 29.4428 26.8041 29.8651 27.1195C30.1818 27.4348 30.4986 27.8552 30.6041 28.2757C30.7097 28.591 30.8153 29.0114 30.9209 29.4319C30.9209 29.7472 30.9209 30.1676 30.9209 30.483C30.8153 30.7983 30.8153 31.1136 30.7097 31.4289C30.7097 31.7443 30.6041 31.9545 30.6041 32.2698C30.6041 32.48 30.6041 32.6903 30.8153 32.9005L31.6599 34.1618L30.393 35.318L29.1261 34.1618C28.9149 33.9516 28.7038 33.7413 28.5982 33.426C28.4926 33.1107 28.4926 32.9005 28.4926 32.5851C28.4926 32.2698 28.5982 31.9545 28.5982 31.6392C28.7038 31.3238 28.7038 31.0085 28.7038 30.6932C28.7038 30.3778 28.7038 30.0625 28.5982 29.7472C28.4926 29.4319 28.2815 29.1165 28.0703 28.8012C27.9648 28.591 27.7536 28.4859 27.5425 28.3808C27.3313 28.2757 27.1202 28.2757 26.909 28.2757C26.6979 28.2757 26.4867 28.3808 26.2756 28.4859C26.0644 28.591 25.8533 28.6961 25.6421 28.9063C25.431 29.1165 25.2198 29.4319 25.0087 29.6421C24.9031 29.8523 24.7975 30.0625 24.6919 30.3778C24.5864 30.5881 24.5864 30.7983 24.5864 30.9034C24.5864 31.0085 24.4808 31.1136 24.3752 31.2187C24.2696 31.4289 23.9529 31.4289 23.7418 31.3238L22.5804 31.1136ZM32.2933 38.4713C32.1878 38.3662 32.0822 38.1559 31.9766 37.9457C31.871 37.7355 31.871 37.5253 31.871 37.3151C31.871 36.8946 32.0822 36.4742 32.3989 36.1589C32.5045 36.0538 32.7156 35.9486 32.9268 35.8435C33.1379 35.7384 33.3491 35.7384 33.5602 35.7384C34.1937 35.7384 34.8271 36.1589 35.0383 36.7895C35.1439 36.9997 35.1439 37.21 35.1439 37.4202C35.1439 37.6304 35.0383 37.8406 35.0383 38.0508C34.9327 38.261 34.8271 38.3662 34.616 38.5764C34.5104 38.6815 34.2993 38.8917 34.0881 38.8917C33.6658 38.9968 33.2435 38.9968 32.9268 38.8917C32.6101 38.7866 32.3989 38.6815 32.2933 38.4713Z" fill="#D5DAE5"/>
<g filter="url(#filter2_dd_4005_1686)">
<path d="M74.2066 43.8323L67.9777 66.0104C67.7665 66.7462 66.9219 67.2717 66.1829 66.9564L44.54 60.6498C43.801 60.4396 43.2731 59.5988 43.5899 58.863L52.0359 30.2732C52.247 29.5375 53.0916 29.0119 53.8306 29.3272L69.5613 33.9521L74.2066 43.8323Z" fill="white"/>
</g>
<path d="M69.5635 33.9907L67.5555 40.2584C67.3443 41.0993 67.8722 42.0452 68.7168 42.2555L74.285 43.8219" fill="#D5DAE5"/>
<path d="M57.6315 42.466C57.9482 42.3609 58.2649 42.2558 58.5816 42.1506C58.8984 42.0455 59.2151 41.9404 59.6374 41.9404C60.0597 41.9404 60.3764 41.9404 60.7987 41.9404C61.221 41.9404 61.6433 42.0455 62.0656 42.1506C62.5935 42.2558 63.1214 42.5711 63.5437 42.8864C63.966 43.2017 64.2827 43.5171 64.5994 43.9375C64.8106 44.3579 65.0217 44.7784 65.1273 45.1988C65.2329 45.7244 65.1273 46.2499 65.0217 46.6704C64.9161 47.0908 64.705 47.5112 64.3883 47.9317C64.1771 48.247 63.8604 48.5623 63.5437 48.7725C63.2269 48.9828 62.9102 49.193 62.5935 49.2981L61.6433 49.6134C61.4322 49.7185 61.1154 49.8236 60.9043 49.9287C60.6931 50.0339 60.482 50.2441 60.482 50.4543L59.8485 51.8207L58.1593 51.0849L58.4761 49.4032C58.4761 49.0879 58.6872 48.8777 58.8984 48.6674C59.1095 48.4572 59.3207 48.247 59.6374 48.1419C59.9541 48.0368 60.2708 47.9317 60.482 47.8266C60.7987 47.7214 61.1154 47.6163 61.4322 47.4061C61.7489 47.301 61.96 47.0908 62.2768 46.8806C62.4879 46.6704 62.6991 46.355 62.8046 45.9346C62.8046 45.8295 62.8046 45.6193 62.8046 45.409C62.8046 45.1988 62.6991 44.9886 62.5935 44.7784C62.4879 44.5682 62.2768 44.4631 62.0656 44.2528C61.8545 44.1477 61.6433 44.0426 61.3266 43.9375C61.0099 43.8324 60.6931 43.8324 60.2708 43.8324C60.0597 43.8324 59.743 43.8324 59.5318 43.9375C59.3207 43.9375 59.1095 44.0426 59.0039 44.0426C58.8984 44.0426 58.7928 44.1477 58.5816 44.0426C58.3705 44.0426 58.1593 43.8324 58.1593 43.6222L57.6315 42.466ZM56.0478 54.5536C56.1534 54.3433 56.1534 54.1331 56.3646 54.028C56.4701 53.8178 56.6813 53.7127 56.7869 53.6076C57.2092 53.3974 57.6315 53.3974 57.9482 53.5025C58.1593 53.6076 58.3705 53.7127 58.4761 53.8178C58.5816 53.9229 58.7928 54.1331 58.8984 54.2382C59.3207 54.974 59.0039 55.92 58.2649 56.2353C57.8426 56.4455 57.4203 56.4455 57.1036 56.3404C56.8924 56.2353 56.6813 56.2353 56.5757 56.0251C56.3646 55.92 56.259 55.7098 56.1534 55.6047C56.0478 55.3944 56.0478 55.2893 55.9423 55.0791C56.0478 54.974 56.0478 54.7638 56.0478 54.5536Z" fill="#D5DAE5"/>
<g filter="url(#filter3_d_4005_1686)">
<path d="M125.094 81.777L104.612 92.8135C103.979 93.1288 103.029 92.9186 102.712 92.1828L92.4711 72.3171C92.1544 71.6865 92.3656 70.7405 93.1046 70.4252L119.709 56.4456C120.343 56.1303 121.293 56.3405 121.61 57.0763L129 71.4763L125.094 81.777Z" fill="white"/>
</g>
<path d="M128.894 71.686L123.193 74.6291C122.454 75.0495 122.138 76.1006 122.454 76.8364L124.988 81.8817" fill="#D5DAE5"/>
<path d="M114.747 68.9531C115.064 69.0582 115.275 69.2685 115.592 69.3736C115.909 69.4787 116.12 69.6889 116.437 70.0042C116.753 70.3195 116.964 70.5298 117.176 70.8451C117.492 71.1604 117.703 71.4758 117.915 71.8962C118.231 72.3166 118.337 72.9473 118.337 73.3677C118.442 73.8933 118.337 74.3137 118.337 74.8393C118.231 75.2597 118.02 75.6801 117.809 76.1006C117.492 76.521 117.07 76.8363 116.648 77.0465C116.331 77.2568 115.803 77.3619 115.381 77.467C115.064 77.5721 114.536 77.5721 114.219 77.467C113.903 77.3619 113.48 77.3619 113.164 77.1517L112.319 76.7312C112.108 76.6261 111.791 76.521 111.58 76.4159C111.369 76.3108 111.052 76.3108 110.947 76.521L109.574 77.0465L108.835 75.4699L110.208 74.5239C110.419 74.3137 110.736 74.3137 111.052 74.3137C111.369 74.3137 111.58 74.3137 111.897 74.4188C112.214 74.5239 112.425 74.7341 112.636 74.8393C112.953 74.9444 113.164 75.1546 113.586 75.2597C113.903 75.3648 114.114 75.3648 114.536 75.4699C114.853 75.4699 115.17 75.3648 115.592 75.1546C115.909 74.9444 116.331 74.629 116.331 74.1035C116.437 73.8933 116.331 73.683 116.331 73.3677C116.225 73.1575 116.225 72.9473 116.014 72.632C115.909 72.3166 115.698 72.1064 115.486 71.7911C115.381 71.686 115.17 71.4758 114.959 71.3706C114.853 71.2655 114.642 71.1604 114.536 71.0553C114.431 70.9502 114.325 70.9502 114.219 70.74C114.114 70.6349 114.114 70.3195 114.219 70.2144L114.747 68.9531ZM104.929 76.2057C105.14 76.1006 105.246 75.9955 105.562 76.1006C105.773 75.9955 105.985 76.1006 106.09 76.1006C106.513 76.2057 106.829 76.521 106.935 76.8363C107.04 77.0465 107.04 77.2568 107.04 77.467C107.04 77.5721 107.04 77.8874 107.04 77.9925C106.935 78.3079 106.618 78.7283 106.301 78.8334C106.09 78.9385 105.879 78.9385 105.668 78.9385C105.562 78.9385 105.246 78.9385 105.14 78.9385C104.718 78.8334 104.401 78.5181 104.295 78.2028C104.19 77.9925 104.19 77.7823 104.19 77.5721C104.084 77.3619 104.19 77.1517 104.19 77.0465C104.295 76.8363 104.401 76.7312 104.401 76.521C104.507 76.4159 104.823 76.4159 104.929 76.2057Z" fill="#D5DAE5"/>
<path d="M100.917 58.6523H81.0689C79.1686 58.6523 77.2682 59.283 75.7902 60.5443L70.5114 64.7487C69.0334 65.9049 67.133 66.6407 65.2327 66.6407H42.6396C40.4226 66.6407 38.5222 68.4275 38.5222 70.7399C38.5222 70.9501 38.5222 71.1604 38.6278 71.3706L42.7452 92.918C43.0619 94.9151 44.8567 96.4917 46.8626 96.4917H95.1104C97.2219 96.4917 98.9111 95.0202 99.2278 93.0231L105.034 63.3823C105.351 61.175 103.873 59.0728 101.55 58.7575C101.339 58.6523 101.128 58.6523 100.917 58.6523Z" fill="white"/>
<g filter="url(#filter4_dd_4005_1686)">
<path d="M106.407 54.7637H82.7582C80.5411 54.7637 78.2185 55.6045 76.5293 56.971L70.1948 62.1213C68.4 63.5929 66.1829 64.3286 63.9659 64.3286H36.8331C34.1937 64.3286 31.8711 66.4308 31.8711 69.2688C31.8711 69.479 31.8711 69.7943 31.9767 70.0045L36.9387 96.1768C37.361 98.5943 39.3669 100.486 41.9007 100.486H99.439C101.867 100.486 103.979 98.6994 104.401 96.2819L111.263 60.4396C111.686 57.8118 109.891 55.1841 107.146 54.7637C106.935 54.7637 106.618 54.7637 106.407 54.7637Z" fill="url(#paint1_linear_4005_1686)"/>
</g>
<path d="M60.7986 82.3021C62.171 82.3021 63.3324 81.1459 63.3324 79.7795C63.3324 78.413 62.171 77.2568 60.7986 77.2568C59.4261 77.2568 58.2648 78.413 58.2648 79.7795C58.2648 81.1459 59.4261 82.3021 60.7986 82.3021Z" fill="#989FB0"/>
<path d="M80.5411 81.8817C81.9136 81.8817 83.0749 80.7255 83.0749 79.3591C83.0749 77.9926 81.9136 76.8364 80.5411 76.8364C79.1687 76.8364 78.0073 77.9926 78.0073 79.3591C78.0073 80.7255 79.1687 81.8817 80.5411 81.8817Z" fill="#989FB0"/>
<path d="M76.0014 86.0862H74.6289C73.4676 83.7738 70.6171 82.8278 68.4 84.0891C67.4498 84.5095 66.7108 85.3504 66.3941 86.0862H65.0216C66.1829 83.038 69.6669 81.4614 72.623 82.6176C74.2066 83.2482 75.368 84.5095 76.0014 86.0862Z" fill="#989FB0"/>
<path d="M116.014 109C114.853 109 115.275 109.105 106.301 100.171C97.6443 106.583 85.6088 100.381 85.6088 89.8702C85.6088 82.8279 91.4154 77.0469 98.4889 77.0469C108.73 77.0469 115.064 88.5038 109.046 97.2279L117.387 105.532C118.759 106.793 117.915 109 116.014 109ZM98.5945 81.1461C93.738 81.1461 89.7262 85.0352 89.7262 89.9753C89.7262 94.9155 93.6325 98.8045 98.5945 98.8045C99.1224 98.8045 99.6502 98.8045 100.178 98.6994C100.706 98.5943 101.234 98.4892 101.656 98.279C102.184 98.0688 102.606 97.8585 103.029 97.6483C103.557 97.333 103.979 97.0177 104.401 96.5972C104.718 96.2819 105.14 95.8615 105.457 95.5461C105.774 95.1257 106.09 94.7053 106.301 94.2848C106.513 93.8644 106.724 93.3388 106.935 92.8133C107.146 92.2877 107.252 91.7622 107.252 91.2366C107.252 90.8162 107.357 90.5009 107.357 90.0804C107.463 85.0352 103.451 81.1461 98.5945 81.1461Z" fill="#989FB0"/>
<path d="M54.5697 75.47L60.2707 72.4219" stroke="#989FB0" stroke-width="1.5" stroke-miterlimit="10"/>
<path d="M85.5032 73.9985L79.8021 70.8452" stroke="#989FB0" stroke-width="1.5" stroke-miterlimit="10"/>
<defs>
<filter id="filter0_dd_4005_1686" x="72.2333" y="0" width="59.3268" height="67.1797" filterUnits="userSpaceOnUse" color-interpolation-filters="sRGB">
<feFlood flood-opacity="0" result="BackgroundImageFix"/>
<feColorMatrix in="SourceAlpha" type="matrix" values="0 0 0 0 0 0 0 0 0 0 0 0 0 0 0 0 0 0 127 0" result="hardAlpha"/>
<feOffset dy="4"/>
<feGaussianBlur stdDeviation="4.5"/>
<feColorMatrix type="matrix" values="0 0 0 0 0.397708 0 0 0 0 0.47749 0 0 0 0 0.575 0 0 0 0.15 0"/>
<feBlend mode="normal" in2="BackgroundImageFix" result="effect1_dropShadow_4005_1686"/>
<feColorMatrix in="SourceAlpha" type="matrix" values="0 0 0 0 0 0 0 0 0 0 0 0 0 0 0 0 0 0 127 0" result="hardAlpha"/>
<feOffset dy="1"/>
<feGaussianBlur stdDeviation="0.5"/>
<feComposite in2="hardAlpha" operator="out"/>
<feColorMatrix type="matrix" values="0 0 0 0 0 0 0 0 0 0 0 0 0 0 0 0 0 0 0.03 0"/>
<feBlend mode="normal" in2="effect1_dropShadow_4005_1686" result="effect2_dropShadow_4005_1686"/>
<feBlend mode="normal" in="SourceGraphic" in2="effect2_dropShadow_4005_1686" result="shape"/>
</filter>
<filter id="filter1_dd_4005_1686" x="0" y="11.9243" width="57.7244" height="53.1733" filterUnits="userSpaceOnUse" color-interpolation-filters="sRGB">
<feFlood flood-opacity="0" result="BackgroundImageFix"/>
<feColorMatrix in="SourceAlpha" type="matrix" values="0 0 0 0 0 0 0 0 0 0 0 0 0 0 0 0 0 0 127 0" result="hardAlpha"/>
<feOffset dy="4"/>
<feGaussianBlur stdDeviation="4.5"/>
<feColorMatrix type="matrix" values="0 0 0 0 0.397708 0 0 0 0 0.47749 0 0 0 0 0.575 0 0 0 0.15 0"/>
<feBlend mode="normal" in2="BackgroundImageFix" result="effect1_dropShadow_4005_1686"/>
<feColorMatrix in="SourceAlpha" type="matrix" values="0 0 0 0 0 0 0 0 0 0 0 0 0 0 0 0 0 0 127 0" result="hardAlpha"/>
<feOffset dy="1"/>
<feGaussianBlur stdDeviation="0.5"/>
<feComposite in2="hardAlpha" operator="out"/>
<feColorMatrix type="matrix" values="0 0 0 0 0 0 0 0 0 0 0 0 0 0 0 0 0 0 0.03 0"/>
<feBlend mode="normal" in2="effect1_dropShadow_4005_1686" result="effect2_dropShadow_4005_1686"/>
<feBlend mode="normal" in="SourceGraphic" in2="effect2_dropShadow_4005_1686" result="shape"/>
</filter>
<filter id="filter2_dd_4005_1686" x="34.4961" y="24.2339" width="48.7104" height="55.8159" filterUnits="userSpaceOnUse" color-interpolation-filters="sRGB">
<feFlood flood-opacity="0" result="BackgroundImageFix"/>
<feColorMatrix in="SourceAlpha" type="matrix" values="0 0 0 0 0 0 0 0 0 0 0 0 0 0 0 0 0 0 127 0" result="hardAlpha"/>
<feOffset dy="4"/>
<feGaussianBlur stdDeviation="4.5"/>
<feColorMatrix type="matrix" values="0 0 0 0 0.397708 0 0 0 0 0.47749 0 0 0 0 0.575 0 0 0 0.15 0"/>
<feBlend mode="normal" in2="BackgroundImageFix" result="effect1_dropShadow_4005_1686"/>
<feColorMatrix in="SourceAlpha" type="matrix" values="0 0 0 0 0 0 0 0 0 0 0 0 0 0 0 0 0 0 127 0" result="hardAlpha"/>
<feOffset dy="1"/>
<feGaussianBlur stdDeviation="0.5"/>
<feComposite in2="hardAlpha" operator="out"/>
<feColorMatrix type="matrix" values="0 0 0 0 0 0 0 0 0 0 0 0 0 0 0 0 0 0 0.03 0"/>
<feBlend mode="normal" in2="effect1_dropShadow_4005_1686" result="effect2_dropShadow_4005_1686"/>
<feBlend mode="normal" in="SourceGraphic" in2="effect2_dropShadow_4005_1686" result="shape"/>
</filter>
<filter id="filter3_d_4005_1686" x="70.3286" y="45.3037" width="80.6715" height="80.6519" filterUnits="userSpaceOnUse" color-interpolation-filters="sRGB">
<feFlood flood-opacity="0" result="BackgroundImageFix"/>
<feColorMatrix in="SourceAlpha" type="matrix" values="0 0 0 0 0 0 0 0 0 0 0 0 0 0 0 0 0 0 127 0" result="hardAlpha"/>
<feOffset dy="11"/>
<feGaussianBlur stdDeviation="11"/>
<feColorMatrix type="matrix" values="0 0 0 0 0.397708 0 0 0 0 0.47749 0 0 0 0 0.575 0 0 0 0.27 0"/>
<feBlend mode="normal" in2="BackgroundImageFix" result="effect1_dropShadow_4005_1686"/>
<feBlend mode="normal" in="SourceGraphic" in2="effect1_dropShadow_4005_1686" result="shape"/>
</filter>
<filter id="filter4_dd_4005_1686" x="22.8711" y="49.7637" width="97.4539" height="63.7227" filterUnits="userSpaceOnUse" color-interpolation-filters="sRGB">
<feFlood flood-opacity="0" result="BackgroundImageFix"/>
<feColorMatrix in="SourceAlpha" type="matrix" values="0 0 0 0 0 0 0 0 0 0 0 0 0 0 0 0 0 0 127 0" result="hardAlpha"/>
<feOffset dy="4"/>
<feGaussianBlur stdDeviation="4.5"/>
<feColorMatrix type="matrix" values="0 0 0 0 0.397708 0 0 0 0 0.47749 0 0 0 0 0.575 0 0 0 0.15 0"/>
<feBlend mode="normal" in2="BackgroundImageFix" result="effect1_dropShadow_4005_1686"/>
<feColorMatrix in="SourceAlpha" type="matrix" values="0 0 0 0 0 0 0 0 0 0 0 0 0 0 0 0 0 0 127 0" result="hardAlpha"/>
<feOffset dy="1"/>
<feGaussianBlur stdDeviation="0.5"/>
<feComposite in2="hardAlpha" operator="out"/>
<feColorMatrix type="matrix" values="0 0 0 0 0 0 0 0 0 0 0 0 0 0 0 0 0 0 0.03 0"/>
<feBlend mode="normal" in2="effect1_dropShadow_4005_1686" result="effect2_dropShadow_4005_1686"/>
<feBlend mode="normal" in="SourceGraphic" in2="effect2_dropShadow_4005_1686" result="shape"/>
</filter>
<linearGradient id="paint0_linear_4005_1686" x1="69.8832" y1="48.5984" x2="69.8832" y2="72.964" gradientUnits="userSpaceOnUse">
<stop stop-color="#B0BACC"/>
<stop offset="1" stop-color="#969EAE"/>
</linearGradient>
<linearGradient id="paint1_linear_4005_1686" x1="71.5721" y1="53.7061" x2="71.5721" y2="100.979" gradientUnits="userSpaceOnUse">
<stop stop-color="#FDFEFF"/>
<stop offset="0.9964" stop-color="#ECF0F5"/>
</linearGradient>
</defs>
</svg>
